<svg width="46" height="46" fill="none" stroke="#d6d7d8" stroke-linecap="round" stroke-linejoin="round" stroke-width="1.5" viewBox="0 0 24 24" xmlns="http://www.w3.org/2000/svg">
  <path d="M17.625 6.75c-.184 2.478-2.063 4.5-4.125 4.5-2.063 0-3.945-2.021-4.125-4.5-.188-2.578 1.64-4.5 4.125-4.5 2.484 0 4.312 1.969 4.125 4.5Z"></path>
  <path d="M13.5 14.25c-4.078 0-8.217 2.25-8.983 6.497-.093.512.198 1.003.734 1.003h16.5c.536 0 .825-.491.733-1.003-.766-4.247-4.905-6.497-8.984-6.497Z"></path>
  <path d="M4.125 8.25v5.25"></path>
  <path d="M6.75 10.875H1.5"></path>
</svg>